<?xml version="1.0" ?><!-- Uploaded to: SVG Repo, www.svgrepo.com, Generator: SVG Repo Mixer Tools -->
<svg width="800px" height="800px" viewBox="0 0 64 64" data-name="Layer 1" id="Layer_1" xmlns="http://www.w3.org/2000/svg"><defs><style>.cls-1{fill:#65c8d0;}.cls-2{fill:#fcdd7c;}.cls-3{fill:#838bc5;}.cls-4{fill:#f4ecce;}</style></defs><path class="cls-1" d="M39,62H13l4-16V10a8,8,0,0,1,8-8H51L47,18V54A8,8,0,0,1,39,62Z"/><circle class="cls-2" cx="32" cy="14" r="8"/><path class="cls-3" d="M51,2h0a4,4,0,0,1,4,4V18a0,0,0,0,1,0,0H47a0,0,0,0,1,0,0V6a4,4,0,0,1,4-4Z"/><path class="cls-3" d="M13,46h0a4,4,0,0,1,4,4V62a0,0,0,0,1,0,0H9a0,0,0,0,1,0,0V50A4,4,0,0,1,13,46Z" transform="translate(26 108) rotate(180)"/><path class="cls-1" d="M32.89,18.45l-1.78-.9L32.38,15H30a1,1,0,0,1-.89-1.45l2-4,1.78.9L31.62,13H34a1,1,0,0,1,.89,1.45Z"/><rect class="cls-4" height="2" width="2" x="20" y="26"/><rect class="cls-4" height="2" width="2" x="24" y="26"/><rect class="cls-4" height="2" width="2" x="28" y="26"/><rect class="cls-4" height="2" width="12" x="32" y="26"/><rect class="cls-4" height="2" width="24" x="20" y="30"/><rect class="cls-4" height="2" width="2" x="42" y="34"/><rect class="cls-4" height="2" width="2" x="38" y="34"/><rect class="cls-4" height="2" width="2" x="34" y="34"/><rect class="cls-4" height="2" width="12" x="20" y="34"/><rect class="cls-4" height="2" width="24" x="20" y="38"/><rect class="cls-4" height="2" width="2" x="20" y="42"/><rect class="cls-4" height="2" width="2" x="24" y="42"/><rect class="cls-4" height="2" width="2" x="28" y="42"/><rect class="cls-4" height="2" width="12" x="32" y="42"/><rect class="cls-4" height="2" width="24" x="20" y="46"/><rect class="cls-4" height="2" width="2" x="42" y="50"/><rect class="cls-4" height="2" width="2" x="38" y="50"/><rect class="cls-4" height="2" width="2" x="34" y="50"/><rect class="cls-4" height="2" width="12" x="20" y="50"/><rect class="cls-4" height="2" width="24" x="20" y="54"/></svg>